<?xml version="1.0" encoding="UTF-8"?>
<!DOCTYPE svg PUBLIC "-//W3C//DTD SVG 1.1//EN" "http://www.w3.org/Graphics/SVG/1.1/DTD/svg11.dtd">
<!-- Creator: CorelDRAW 2018 (64-Bit) -->
<svg xmlns="http://www.w3.org/2000/svg" xml:space="preserve" width="100%" height="100%" version="1.1" style="shape-rendering:geometricPrecision; text-rendering:geometricPrecision; image-rendering:optimizeQuality; fill-rule:evenodd; clip-rule:evenodd"
viewBox="0 0 18000 21000"
 xmlns:xlink="http://www.w3.org/1999/xlink">
 <defs>
  <style type="text/css">
   <![CDATA[
    .fil1 {fill:#9146FF}
    .fil0 {fill:white}
   ]]>
  </style>
 </defs>
 <g id="Слой_x0020_1">
  <metadata id="CorelCorpID_0Corel-Layer"/>
  <g id="logo-_x002f_-glitch-_x002f_-purple">
   <g id="logo-_x002f_-glitch">
    <polygon id="Fill-1" class="fil0" points="16500.19,9750.06 13500.02,12750.06 10500.14,12750.06 7874.95,15375.07 7874.95,12750.06 4500.1,12750.06 4500.1,1500.02 16500.19,1500.02 "/>
    <path id="Combined-Shape" class="fil1" d="M18000 0.01l0 10500.22 -6750.01 6749.51 -2999.72 0 -3750.3 3750.26 0 -3750.26 -4499.96 0 0 -13499.62 3749.84 -3750.11 14250.15 0zm-1499.93 1500.07l-12000.1 0 0 11249.89 3375.01 0 0 2624.86 2625.34 -2624.86 3000.03 0 2999.72 -3000.01 0 -8249.88zm-2250.03 2624.99l0 4499.76 -1499.93 0 0 -4499.76 1499.93 0zm-4124.98 0l0 4499.76 -1499.93 0 0 -4499.76 1499.93 0z"/>
   </g>
  </g>
 </g>
</svg>
