<?xml version="1.0" encoding="UTF-8"?>
<!DOCTYPE svg PUBLIC "-//W3C//DTD SVG 1.1//EN" "http://www.w3.org/Graphics/SVG/1.1/DTD/svg11.dtd">
<!-- Creator: CorelDRAW 2018 (64-Bit) -->
<svg xmlns="http://www.w3.org/2000/svg" xml:space="preserve" width="100%" height="100%" version="1.1" style="shape-rendering:geometricPrecision; text-rendering:geometricPrecision; image-rendering:optimizeQuality; fill-rule:evenodd; clip-rule:evenodd"
viewBox="0 0 21000 21000"
 xmlns:xlink="http://www.w3.org/1999/xlink">
 <defs>
  <style type="text/css">
   <![CDATA[
    .fil0 {fill:#4680C2}
    .fil1 {fill:white}
   ]]>
  </style>
 </defs>
 <g id="Слой_x0020_1">
  <metadata id="CorelCorpID_0Corel-Layer"/>
  <path class="fil0" d="M7276.64 0l6446.72 0c5883.55,0 7276.64,1393.09 7276.64,7276.64l0 6446.72c0,5883.55 -1393.09,7276.64 -7276.64,7276.64l-6446.72 0c-5883.55,0 -7276.64,-1393.09 -7276.64,-7276.64l0 -6446.72c0,-5883.55 1393.09,-7276.64 7276.64,-7276.64z"/>
  <path class="fil1" d="M17191.24 7232.19c103.73,-326.04 0,-563.16 -459.42,-563.16l-1526.46 0c-385.32,0 -563.16,207.47 -666.9,429.77 0,0 -785.45,1896.97 -1882.14,3127.02 -355.69,355.69 -518.7,474.25 -711.37,474.25 -103.74,0 -237.12,-118.56 -237.12,-444.6l0 -3038.11c0,-385.31 -118.57,-563.16 -444.6,-563.16l-2400.85 0c-237.12,0 -385.31,177.85 -385.31,355.69 0,370.51 548.33,459.42 607.61,1496.83l0 2252.65c0,489.05 -88.91,577.99 -281.58,577.99 -518.7,0 -1778.4,-1911.8 -2534.23,-4090.33 -148.19,-429.77 -296.41,-592.81 -681.72,-592.81l-1541.28 -0.02c-444.6,0 -518.71,207.48 -518.71,429.78 0,400.14 518.71,2415.67 2415.67,5083.27 1259.71,1822.86 3052.94,2800.98 4668.31,2800.98 978.12,0 1096.69,-222.29 1096.69,-592.8l0 -1378.27c0,-444.6 88.91,-518.7 400.14,-518.7 222.29,0 622.44,118.56 1526.45,992.95 1037.41,1037.4 1215.25,1511.65 1793.24,1511.65l1526.47 0c444.6,0 652.09,-222.3 533.53,-652.09 -133.38,-429.77 -637.26,-1052.23 -1289.33,-1793.23 -355.69,-414.97 -889.2,-874.39 -1052.23,-1096.69 -222.3,-296.4 -163.02,-414.96 0,-681.72 -14.85,0.02 1852.49,-2637.95 2045.14,-3527.14z"/>
 </g>
</svg>
